Coordinates
version=1
nRows=6
nColumns=36
inDegrees=yes

Units are S.I. units (second, meters, Newtons, ...)
If the header above contains a line with 'inDegrees', this indicates whether rotational values are in degrees (yes) or radians (no).

endheader
time	pelvis_tilt	pelvis_list	pelvis_rotation	pelvis_tx	pelvis_ty	pelvis_tz	hip_flexion_r	hip_adduction_r	hip_rotation_r	knee_angle_r	knee_angle_r_beta	ankle_angle_r	subtalar_angle_r	mtp_angle_r	hip_flexion_l	hip_adduction_l	hip_rotation_l	knee_angle_l	knee_angle_l_beta	ankle_angle_l	subtalar_angle_l	mtp_angle_l	lumbar_extension	lumbar_bending	lumbar_rotation	arm_flex_r	arm_add_r	arm_rot_r	elbow_flex_r	pro_sup_r	arm_flex_l	arm_add_l	arm_rot_l	elbow_flex_l	pro_sup_l
      3.93333330	     -4.38232902	      2.20385515	     -0.40826083	     -0.05430190	      1.23922515	     -0.03210731	      1.93664942	      0.18790067	      1.29994389	      0.17507505	      0.00305564	      6.85142305	    -10.68931287	     -7.49999987	      0.72034252	     -1.18886265	     -1.73143627	      0.54378401	      0.00949082	      6.69086618	     -2.16439008	     -7.49999987	     -0.81606147	      1.04080570	     -2.05968085	      5.07342094	     -6.36582806	     29.78932762	     21.61426647	     68.27245226	      5.79644671	     -8.51470513	     37.69411550	     26.47594771	     77.39568243
      3.95000000	     -4.19622627	      2.16229525	     -0.49304086	     -0.05486708	      1.23966168	     -0.03215890	      1.71686141	      0.23484359	      1.63214591	      0.17960717	      0.00313474	      6.48227326	    -11.44892435	     -7.49999987	      0.44334622	     -1.23173293	     -1.58264819	      0.60105636	      0.01049041	      6.36409727	     -2.97501138	     -7.49999987	     -1.36206666	      1.12190667	     -2.01118655	      5.26762187	     -6.38982604	     29.84511762	     21.29238115	     67.83152415	      6.00409410	     -8.51244159	     38.05899378	     26.29483059	     76.79951558
      3.96666670	     -4.12095863	      2.13113783	     -0.57980525	     -0.05296885	      1.24244621	     -0.03170441	      1.58361782	      0.28096899	      1.64403170	      0.18651513	      0.00325530	      6.49783438	    -11.49479898	     -7.49999987	      0.28344800	     -1.27738248	     -1.66262821	      0.70381548	      0.01228390	      6.41873989	     -3.10541102	     -7.49999987	     -1.72968639	      1.18402804	     -1.99612843	      5.31710054	     -6.37782067	     29.68066333	     20.95996195	     67.57500895	      6.07925540	     -8.46188654	     38.12452192	     26.00956305	     76.43317615
      3.98333330	     -4.12183943	      2.12640701	     -0.66028436	     -0.05145145	      1.24053527	     -0.03188030	      1.45973996	      0.31248006	      1.53161846	      0.19623593	      0.00342496	      6.72761804	    -11.24465090	     -7.49999987	      0.24479444	     -1.26692813	     -1.53471328	      0.86676428	      0.01512789	      6.46305126	     -3.40788092	     -7.49999987	     -2.00353928	      1.24072342	     -2.00828759	      5.22190847	     -6.42234359	     29.64718711	     20.82532471	     67.25229807	      5.95960924	     -8.42986696	     38.12276264	     25.93272468	     75.88686293
      4.00000000	     -4.09721254	      2.08341028	     -0.74870492	     -0.05223556	      1.24072421	     -0.03323382	      1.31374521	      0.39482835	      1.64406240	      0.21088716	      0.00368068	      6.54686709	    -11.74290005	     -7.49999987	      0.29565930	     -1.26566852	     -1.49731983	      1.17565653	      0.02051908	      6.64368529	     -3.68623978	     -7.49999987	     -2.47126501	      1.33582765	     -1.90719709	      5.19555087	     -6.53348772	     29.58007415	     20.68911565	     67.05524216	      6.01747509	     -8.38452793	     38.10310179	     25.95076784	     75.59028112
      4.01666670	     -4.13730658	      2.10872065	     -0.84776004	     -0.05038408	      1.23893825	     -0.03309547	      1.27908701	      0.39694066	      1.97263435	      0.23428143	      0.00408898	      6.56597426	    -12.10112082	     -7.49999987	      0.50752446	     -1.20219738	     -1.28849123	      1.72780242	      0.03015584	      6.74049081	     -4.34344523	     -7.49999987	     -2.88269756	      1.33790940	     -1.87134015	      5.14598651	     -6.57677833	     29.52667869	     20.52327821	     66.92335768	      6.00507507	     -8.41406725	     38.17120982	     25.96401886	     75.49768149
